<?xml version="1.0" encoding="utf-8"?>
<!-- Generator: Adobe Illustrator 21.0.2, SVG Export Plug-In . SVG Version: 6.00 Build 0)  -->
<svg version="1.1" id="Laag_1" xmlns="http://www.w3.org/2000/svg" xmlns:xlink="http://www.w3.org/1999/xlink" x="0px" y="0px"
	 viewBox="0 0 595.3 792" style="enable-background:new 0 0 595.3 792;" xml:space="preserve">
<style type="text/css">
	.st0{fill:#FFFFFF;}
	.st1{fill:#B30027;}
	.st2{fill:#414141;}
	.st3{fill:#960021;}
	.st4{fill:none;stroke:#B30027;stroke-width:30;stroke-miterlimit:10;}
	.st5{fill:none;stroke:#B30027;stroke-width:20;stroke-miterlimit:10;}
	.st6{fill:none;stroke:#B30027;stroke-width:26.9833;stroke-miterlimit:10;}
	.st7{fill:none;stroke:#B30027;stroke-width:17.9889;stroke-miterlimit:10;}
	.st8{fill:#1D1D1B;}
</style>
<g>
	<path class="st0" d="M292.6,445.2c-8.5,0-17-0.9-25.3-2.5c-8.1-1.6-16-4.1-23.6-7.3c-7.4-3.1-14.6-7-21.3-11.5l16.8-24.9
		c5.1,3.4,10.6,6.4,16.2,8.8c5.8,2.4,11.8,4.3,17.9,5.5c12.6,2.6,26,2.6,38.5,0c6.1-1.2,12.2-3.1,17.9-5.5
		c5.7-2.4,11.1-5.3,16.2-8.8c5.1-3.4,9.8-7.3,14.1-11.6c4.3-4.3,8.2-9,11.7-14.1c3.4-5.1,6.4-10.5,8.8-16.1
		c2.4-5.7,4.3-11.7,5.6-17.8c1.3-6.3,1.9-12.7,1.9-19.2c0-6.5-0.7-12.9-1.9-19.2c-1.3-6.1-3.1-12.1-5.6-17.8
		c-2.4-5.6-5.3-11.1-8.8-16.1c-3.4-5-7.3-9.8-11.7-14.1c-4.3-4.3-9.1-8.2-14.1-11.6c-5.1-3.4-10.6-6.4-16.2-8.8
		c-5.8-2.4-11.8-4.3-17.9-5.5c-12.6-2.6-25.9-2.6-38.5,0c-6.1,1.2-12.2,3.1-17.9,5.5c-5.7,2.4-11.1,5.3-16.2,8.8
		c-5.1,3.4-9.8,7.3-14.1,11.6l-21.2-21.3c5.7-5.7,11.9-10.8,18.6-15.3c6.7-4.5,13.9-8.4,21.3-11.5c7.6-3.2,15.5-5.6,23.6-7.3
		c16.5-3.4,34-3.4,50.5,0c8.1,1.6,16,4.1,23.6,7.3c7.4,3.1,14.6,7,21.3,11.5c6.6,4.5,12.9,9.6,18.6,15.3
		c5.7,5.7,10.8,11.9,15.3,18.5c4.5,6.7,8.4,13.8,11.6,21.3c3.2,7.6,5.7,15.5,7.3,23.5c1.7,8.2,2.6,16.7,2.6,25.2s-0.9,17-2.6,25.2
		c-1.7,8-4.1,16-7.3,23.5c-3.1,7.4-7,14.6-11.6,21.3c-4.5,6.6-9.6,12.8-15.3,18.5c-5.7,5.7-11.9,10.8-18.6,15.3
		c-6.7,4.5-13.9,8.4-21.3,11.5c-7.6,3.2-15.5,5.6-23.6,7.3C309.6,444.4,301.1,445.2,292.6,445.2z"/>
	<path class="st0" d="M297,518.1c-13.4,0-26.9-1.4-40-4c-12.7-2.6-25.3-6.5-37.2-11.6c-11.8-5-23.1-11.1-33.7-18.3
		c-10.5-7.1-20.4-15.2-29.3-24.2c-9-9-17.1-18.8-24.2-29.3c-7.2-10.6-13.3-21.9-18.3-33.7c-5.1-12-9-24.5-11.6-37.2
		c-2.7-13.1-4-26.5-4-40s1.4-26.9,4-40c2.6-12.7,6.5-25.3,11.6-37.3c5-11.8,11.1-23.1,18.3-33.7c7.1-10.5,15.2-20.4,24.2-29.3
		c9-9,18.8-17.1,29.3-24.2c10.6-7.2,21.9-13.3,33.7-18.3c12-5.1,24.5-9,37.2-11.6c26.1-5.3,53.8-5.3,79.9,0
		c12.7,2.6,25.3,6.5,37.3,11.6c11.8,5,23.1,11.1,33.7,18.3c10.5,7.1,20.4,15.2,29.3,24.2L416,200.7c-7.6-7.6-16-14.5-24.9-20.6
		c-9-6.1-18.6-11.3-28.6-15.5c-10.2-4.3-20.8-7.6-31.6-9.8c-22.2-4.5-45.7-4.5-67.9,0c-10.8,2.2-21.4,5.5-31.6,9.8
		c-10,4.2-19.6,9.4-28.6,15.5c-8.9,6-17.3,12.9-24.9,20.6c-7.6,7.6-14.5,16-20.6,24.9c-6.1,9-11.3,18.6-15.5,28.6
		c-4.3,10.2-7.6,20.8-9.8,31.6c-2.3,11.1-3.4,22.5-3.4,33.9s1.2,22.8,3.4,33.9c2.2,10.8,5.5,21.4,9.8,31.6
		c4.2,10,9.4,19.6,15.5,28.6c6,8.9,12.9,17.3,20.6,24.9c7.6,7.6,16,14.5,24.9,20.6c9,6.1,18.6,11.3,28.6,15.5
		c10.2,4.3,20.8,7.6,31.6,9.8c22.2,4.5,45.7,4.5,67.9,0c10.8-2.2,21.4-5.5,31.6-9.8c10-4.2,19.6-9.4,28.6-15.5
		c8.9-6,17.3-12.9,24.9-20.6c7.6-7.6,14.5-16,20.6-24.9l24.9,16.8c-7.1,10.5-15.2,20.4-24.2,29.3c-9,9-18.8,17.1-29.3,24.2
		c-10.6,7.2-21.9,13.3-33.7,18.3c-12,5.1-24.5,9-37.2,11.6C323.9,516.8,310.4,518.1,297,518.1z"/>
	<rect x="242.3" y="55.9" class="st0" width="20" height="311.7"/>
	<rect x="306.7" y="4.3" class="st0" width="20" height="310.7"/>
	<g>
		<path class="st0" d="M66.5,567.3c27.2,0,35.9,15,35.9,30.4c0,9.4-5.2,18.5-15.6,23.6c14.1,5,19.7,15.9,19.7,26.5
			c0,15.5-9.8,33.3-37.6,33.3H23.4V567.3H66.5z M85.2,598.6c0-7.3-3.1-15.6-18.2-15.6H40.3v31.4h23.4
			C78,614.3,85.2,607.8,85.2,598.6z M89.2,648.7c0-9.6-4.7-18.7-23.9-18.7h-25v35.6h29.9C85.2,665.6,89.2,656.6,89.2,648.7z"/>
		<path class="st0" d="M125.2,624.8H165V641h-39.8V624.8z"/>
		<path class="st0" d="M181.3,655.5l15.9-5.9c4.7,10.2,14,17.2,26.2,17.2c12.4,0,20.7-6,20.7-17.6c0-12.4-12.4-16.8-25.7-21.5
			c-15.8-5.7-33.2-11.9-33.2-32.7c0-16.1,13.2-29.8,36.3-29.8c19.4,0,31.2,9.6,35.1,22.6l-15.6,5.2c-2.8-6.5-9.8-11.5-20.8-11.5
			c-10.9,0-17.4,5-17.4,13.7c0,9.3,10.6,13,22.9,17.2c16.4,6,35.9,13,35.9,36.6c0,21.8-16.9,34-38.9,34
			C202.4,683.1,187,672.4,181.3,655.5z"/>
		<path class="st0" d="M279.5,571.6l16.9-7.8V606c5.4-6.8,12.4-9.9,21.5-9.9c17.4,0,29.9,9.4,29.9,35.5v49.6h-16.9v-49.6
			c0-14-7.2-19.5-16.6-19.5c-10.1,0-17.9,4.9-17.9,19.2v49.9h-16.9V571.6z"/>
		<path class="st0" d="M414.8,674c-4.2,4.4-11.7,9.1-22.8,9.1c-16.9,0-29.6-9.4-29.6-27.8c0-19.2,15.6-27.5,31.9-27.5
			c7.6,0,15,1.6,20.5,4.9v-4.6c0-12.5-5.5-17.1-17.7-17.1c-10.4,0-17.6,2.9-23.7,7.5l-5-13.8c6.8-4.7,17.4-8.6,31.1-8.6
			c14.1,0,31.7,3.6,31.7,31.2v53.8h-16.3V674z M414.8,659.2v-12.7c-4.6-2.4-11.2-4.1-17.7-4.1c-10.1,0-18.4,3.7-18.4,12.8
			c0,7.8,5.7,12.8,16.4,12.8C403.8,668.2,410.4,664.1,414.8,659.2z"/>
		<path class="st0" d="M449.8,598.1h16.9v10.1c3.9-8.5,10.2-12,18.5-12c5.5,0,10.2,1.8,14,5l-2.4,15.6c-3.1-2.1-7.2-4.1-13.2-4.1
			c-7.5,0-16.9,4.7-16.9,21.8v46.7h-16.9V598.1z"/>
		<path class="st0" d="M528.3,674v32l-16.9,7.8V598.1h16.9v6.7c4.4-4.9,10.4-8.6,20-8.6c21,0,34.2,16.3,34.2,43.6
			c0,27.3-13.8,43.4-34.2,43.4C538.6,683.1,532.4,679.1,528.3,674z M565.6,639.7c0-16.1-7.2-27.6-19.7-27.6
			c-7.8,0-13.8,3.4-17.6,9.4v36.1c3.7,5,9.6,9.6,17.6,9.6C558.6,667.2,565.6,657.4,565.6,639.7z"/>
	</g>
	<g>
		<path class="st0" d="M42.7,767.9H30.6l-2.4,7.1h-4.6L34.4,744H39l10.8,31.1h-4.6L42.7,767.9z M37.7,753.3c-0.3-1-0.8-2.4-1-3.5
			c-0.3,1.1-0.7,2.5-1,3.5L32,763.8h9.4L37.7,753.3z"/>
		<path class="st0" d="M51.3,759.5c0-7.1,3.2-16.1,12.4-16.1c5.6,0,9,3.1,10.2,6.2l-4.1,2c-1.5-2.4-3-3.7-6.1-3.7
			c-6,0-7.8,6.5-7.8,11.6c0,5.5,2.4,11.6,7.8,11.6c3,0,4.7-1.6,6.1-4l4.1,1.6c-1.7,4-4.9,6.8-10.2,6.8
			C54.5,775.6,51.3,767.2,51.3,759.5z"/>
		<path class="st0" d="M95.4,767.9H83.3l-2.4,7.1h-4.6L87,744h4.6l10.8,31.1h-4.6L95.4,767.9z M90.3,753.3c-0.3-1-0.8-2.4-1-3.5
			c-0.3,1.1-0.7,2.5-1,3.5l-3.7,10.6H94L90.3,753.3z"/>
		<path class="st0" d="M114.5,744c10.4,0,14.3,7.9,14.3,15.5c0,7.1-3.5,15.5-14.5,15.5h-8.2V744H114.5z M124.1,759.5
			c0-5.6-2.5-11.2-8.6-11.2h-5v22.4h4.5C121.9,770.7,124.1,764.8,124.1,759.5z"/>
		<path class="st0" d="M134.3,744h18.6v4.3h-14.1v8.5h9.1v4.4h-9.1v9.5h15v4.3h-19.5V744z"/>
		<path class="st0" d="M181.2,775.1v-17c0-1.6,0.1-4,0.2-5c-0.5,1.5-1.2,3.7-1.8,5.1l-7.2,17.4l-7.3-17.5c-0.6-1.4-1.4-3.6-1.9-5
			c0.1,1,0.2,3.5,0.2,5v17h-4.4V744h4.5l8,19.4c0.3,0.8,0.6,1.7,0.8,2.4c0.2-0.8,0.6-1.7,0.9-2.4l8-19.4h4.5v31.1H181.2z"/>
		<path class="st0" d="M192.5,744h4.4v31.1h-4.4V744z"/>
		<path class="st0" d="M202.7,759.5c0-7.1,3.2-16.1,12.4-16.1c5.6,0,9,3.1,10.2,6.2l-4.1,2c-1.5-2.4-3-3.7-6.1-3.7
			c-6,0-7.8,6.5-7.8,11.6c0,5.5,2.4,11.6,7.8,11.6c3,0,4.7-1.6,6.1-4l4.1,1.6c-1.7,4-4.9,6.8-10.2,6.8
			C205.8,775.6,202.7,767.2,202.7,759.5z"/>
		<path class="st0" d="M238.2,759.5c0-7.7,3.4-16.1,13-16.1c9.6,0,13,8.4,13,16.1c0,7.7-3.4,16.1-13,16.1
			C241.6,775.6,238.2,767.2,238.2,759.5z M259.6,759.5c0-5.4-2.2-11.6-8.4-11.6s-8.4,6.6-8.4,11.6c0,5.4,2.2,11.6,8.4,11.6
			S259.6,764.6,259.6,759.5z"/>
		<path class="st0" d="M269.8,744h12.6c7.4,0,9.7,4.5,9.7,9.2c0,3.6-1.9,7.5-6.5,8.8l6.2,13.1h-5.1l-5.9-12.7h-6.5v12.7h-4.4V744z
			 M282.5,757.9c3.7,0,5-2.4,5-4.7c0-2.2-1-4.8-5-4.8h-8.3v9.5H282.5z"/>
		<path class="st0" d="M296.6,759.5c0-7.1,3.2-16.1,12.4-16.1c5.6,0,9,3.1,10.2,6.2l-4.1,2c-1.5-2.4-3-3.7-6.1-3.7
			c-6,0-7.8,6.5-7.8,11.6c0,5.5,2.4,11.6,7.8,11.6c3,0,4.7-1.6,6.1-4l4.1,1.6c-1.7,4-4.9,6.8-10.2,6.8
			C299.7,775.6,296.6,767.2,296.6,759.5z"/>
		<path class="st0" d="M342.4,761.2h-13.6v13.8h-4.4V744h4.4v12.9h13.6V744h4.4v31.1h-4.4V761.2z"/>
		<path class="st0" d="M353.5,744h18.6v4.3H358v8.5h9.1v4.4H358v9.5h15v4.3h-19.5V744z"/>
		<path class="st0" d="M376.4,768.1l4.2-1.6c1.2,2.8,3.7,4.7,6.9,4.7c3.2,0,5.4-1.6,5.4-4.8c0-3.4-3.2-4.6-6.8-5.9
			c-4.1-1.6-8.7-3.2-8.7-8.9c0-4.4,3.5-8.1,9.5-8.1c5.1,0,8.2,2.6,9.2,6.2l-4.1,1.4c-0.7-1.8-2.6-3.2-5.5-3.2
			c-2.9,0-4.6,1.4-4.6,3.7c0,2.5,2.8,3.6,6,4.7c4.3,1.6,9.4,3.6,9.4,10c0,5.9-4.4,9.3-10.2,9.3C382,775.6,377.9,772.7,376.4,768.1z"
			/>
		<path class="st0" d="M413.9,775.1h-4.4v-26.6H401V744h21.4v4.4h-8.5V775.1z"/>
		<path class="st0" d="M427.1,744h12.6c7.4,0,9.7,4.5,9.7,9.2c0,3.6-1.9,7.5-6.5,8.8l6.2,13.1h-5.1l-5.9-12.7h-6.5v12.7h-4.4V744z
			 M439.8,757.9c3.7,0,5-2.4,5-4.7c0-2.2-1-4.8-5-4.8h-8.3v9.5H439.8z"/>
		<path class="st0" d="M470.9,767.9h-12.1l-2.4,7.1h-4.6l10.8-31.1h4.6l10.8,31.1h-4.6L470.9,767.9z M465.9,753.3
			c-0.3-1-0.8-2.4-1-3.5c-0.3,1.1-0.7,2.5-1,3.5l-3.7,10.6h9.4L465.9,753.3z"/>
		<path class="st0" d="M489.6,744h12.6c7.4,0,9.7,4.5,9.7,9.2c0,3.6-1.9,7.5-6.5,8.8l6.2,13.1h-5.1l-5.9-12.7H494v12.7h-4.4V744z
			 M502.3,757.9c3.7,0,5-2.4,5-4.7c0-2.2-1-4.8-5-4.8H494v9.5H502.3z"/>
		<path class="st0" d="M517.6,744h4.4v31.1h-4.4V744z"/>
		<path class="st0" d="M527.8,759.5c0-7.6,4.1-16.1,13-16.1c5.7,0,8.4,2.8,10.2,5.9l-4,2.4c-1.4-2-3.1-3.8-6.2-3.8
			c-6.5,0-8.4,6.4-8.4,11.5c0,5.9,2.5,11.5,8.4,11.5c3.8,0,6.3-2.9,6.3-6.6v-0.6h-5.4v-4.4h10v4c0,7.8-4.7,12-10.9,12
			C531.6,775.6,527.8,767.7,527.8,759.5z"/>
		<path class="st0" d="M574.4,767.9h-12.1l-2.4,7.1h-4.6l10.8-31.1h4.6l10.8,31.1h-4.6L574.4,767.9z M569.4,753.3
			c-0.3-1-0.8-2.4-1-3.5c-0.3,1.1-0.7,2.5-1,3.5l-3.7,10.6h9.4L569.4,753.3z"/>
	</g>
</g>
</svg>
